<mxfile host="app.diagrams.net" modified="2024-07-03T20:35:39.165Z" agent="Mozilla/5.0 (Macintosh; Intel Mac OS X 10_15_7) AppleWebKit/537.36 (KHTML, like Gecko) Chrome/126.0.0.0 Safari/537.36" etag="LH0oZLGvpUmUP-oX0VfP" version="24.6.4" type="github">
  <diagram name="Page-1" id="ZgrWW4o71uVwgIAJo_en">
    <mxGraphModel dx="1593" dy="764" grid="0" gridSize="10" guides="1" tooltips="1" connect="1" arrows="1" fold="1" page="1" pageScale="1" pageWidth="4681" pageHeight="3300" math="0" shadow="0">
      <root>
        <mxCell id="0" />
        <mxCell id="1" parent="0" />
        <mxCell id="RolmY0LqYMx0WTnuwE-U-52" style="edgeStyle=orthogonalEdgeStyle;rounded=0;orthogonalLoop=1;jettySize=auto;html=1;entryX=0;entryY=0.5;entryDx=0;entryDy=0;endArrow=oval;endFill=1;fontSize=11;" edge="1" parent="1" source="RolmY0LqYMx0WTnuwE-U-42" target="RolmY0LqYMx0WTnuwE-U-36">
          <mxGeometry relative="1" as="geometry" />
        </mxCell>
        <mxCell id="RolmY0LqYMx0WTnuwE-U-48" style="edgeStyle=orthogonalEdgeStyle;rounded=0;orthogonalLoop=1;jettySize=auto;html=1;entryX=0;entryY=0.5;entryDx=0;entryDy=0;endArrow=oval;endFill=1;fontSize=11;" edge="1" parent="1" source="RolmY0LqYMx0WTnuwE-U-40" target="RolmY0LqYMx0WTnuwE-U-33">
          <mxGeometry relative="1" as="geometry" />
        </mxCell>
        <mxCell id="RolmY0LqYMx0WTnuwE-U-59" style="edgeStyle=orthogonalEdgeStyle;rounded=0;orthogonalLoop=1;jettySize=auto;html=1;entryX=0;entryY=0.5;entryDx=0;entryDy=0;endArrow=oval;endFill=1;fontSize=11;" edge="1" parent="1" source="RolmY0LqYMx0WTnuwE-U-40" target="RolmY0LqYMx0WTnuwE-U-34">
          <mxGeometry relative="1" as="geometry" />
        </mxCell>
        <mxCell id="RolmY0LqYMx0WTnuwE-U-60" style="edgeStyle=orthogonalEdgeStyle;rounded=0;orthogonalLoop=1;jettySize=auto;html=1;entryX=0;entryY=0.5;entryDx=0;entryDy=0;endArrow=oval;endFill=1;fontSize=11;" edge="1" parent="1" source="RolmY0LqYMx0WTnuwE-U-40" target="RolmY0LqYMx0WTnuwE-U-35">
          <mxGeometry relative="1" as="geometry" />
        </mxCell>
        <mxCell id="RolmY0LqYMx0WTnuwE-U-61" style="edgeStyle=orthogonalEdgeStyle;rounded=0;orthogonalLoop=1;jettySize=auto;html=1;entryX=0;entryY=0.5;entryDx=0;entryDy=0;endArrow=oval;endFill=1;fontSize=11;" edge="1" parent="1" source="RolmY0LqYMx0WTnuwE-U-40" target="RolmY0LqYMx0WTnuwE-U-37">
          <mxGeometry relative="1" as="geometry" />
        </mxCell>
        <mxCell id="RolmY0LqYMx0WTnuwE-U-30" style="edgeStyle=orthogonalEdgeStyle;rounded=0;orthogonalLoop=1;jettySize=auto;html=1;endArrow=baseDash;endFill=0;fontSize=11;" edge="1" parent="1" source="RolmY0LqYMx0WTnuwE-U-25">
          <mxGeometry relative="1" as="geometry">
            <mxPoint x="814" y="147" as="targetPoint" />
          </mxGeometry>
        </mxCell>
        <mxCell id="RolmY0LqYMx0WTnuwE-U-15" style="edgeStyle=orthogonalEdgeStyle;rounded=0;orthogonalLoop=1;jettySize=auto;html=1;" edge="1" parent="1" source="RolmY0LqYMx0WTnuwE-U-12" target="RolmY0LqYMx0WTnuwE-U-13">
          <mxGeometry relative="1" as="geometry" />
        </mxCell>
        <mxCell id="RolmY0LqYMx0WTnuwE-U-86" style="edgeStyle=orthogonalEdgeStyle;rounded=0;orthogonalLoop=1;jettySize=auto;html=1;entryX=0.5;entryY=0;entryDx=0;entryDy=0;" edge="1" parent="1" source="RolmY0LqYMx0WTnuwE-U-12" target="RolmY0LqYMx0WTnuwE-U-14">
          <mxGeometry relative="1" as="geometry" />
        </mxCell>
        <mxCell id="RolmY0LqYMx0WTnuwE-U-12" value="makeitable.in" style="rounded=0;whiteSpace=wrap;html=1;" vertex="1" parent="1">
          <mxGeometry x="306" y="398" width="123" height="26" as="geometry" />
        </mxCell>
        <mxCell id="RolmY0LqYMx0WTnuwE-U-18" style="edgeStyle=orthogonalEdgeStyle;rounded=0;orthogonalLoop=1;jettySize=auto;html=1;curved=1;entryX=0.5;entryY=0;entryDx=0;entryDy=0;entryPerimeter=0;" edge="1" parent="1" source="RolmY0LqYMx0WTnuwE-U-13" target="RolmY0LqYMx0WTnuwE-U-17">
          <mxGeometry relative="1" as="geometry" />
        </mxCell>
        <mxCell id="RolmY0LqYMx0WTnuwE-U-13" value="Register" style="rounded=0;whiteSpace=wrap;html=1;" vertex="1" parent="1">
          <mxGeometry x="456" y="355" width="78" height="29" as="geometry" />
        </mxCell>
        <mxCell id="RolmY0LqYMx0WTnuwE-U-14" value="Login" style="rounded=0;whiteSpace=wrap;html=1;" vertex="1" parent="1">
          <mxGeometry x="456" y="439" width="78" height="29" as="geometry" />
        </mxCell>
        <mxCell id="RolmY0LqYMx0WTnuwE-U-17" value="cUDB" style="shape=cylinder3;whiteSpace=wrap;html=1;boundedLbl=1;backgroundOutline=1;size=15;" vertex="1" parent="1">
          <mxGeometry x="568" y="425" width="52" height="57" as="geometry" />
        </mxCell>
        <mxCell id="RolmY0LqYMx0WTnuwE-U-24" style="edgeStyle=orthogonalEdgeStyle;rounded=0;orthogonalLoop=1;jettySize=auto;html=1;entryX=0;entryY=0.5;entryDx=0;entryDy=0;entryPerimeter=0;" edge="1" parent="1" source="RolmY0LqYMx0WTnuwE-U-14" target="RolmY0LqYMx0WTnuwE-U-17">
          <mxGeometry relative="1" as="geometry" />
        </mxCell>
        <mxCell id="RolmY0LqYMx0WTnuwE-U-25" value="Features" style="rounded=0;whiteSpace=wrap;html=1;fontSize=11;" vertex="1" parent="1">
          <mxGeometry x="773" y="74" width="82" height="19" as="geometry" />
        </mxCell>
        <mxCell id="RolmY0LqYMx0WTnuwE-U-84" style="edgeStyle=orthogonalEdgeStyle;rounded=0;orthogonalLoop=1;jettySize=auto;html=1;entryX=0;entryY=0.5;entryDx=0;entryDy=0;endArrow=oval;endFill=1;fontSize=11;" edge="1" parent="1" source="RolmY0LqYMx0WTnuwE-U-26" target="RolmY0LqYMx0WTnuwE-U-31">
          <mxGeometry relative="1" as="geometry" />
        </mxCell>
        <mxCell id="RolmY0LqYMx0WTnuwE-U-26" value="API Resiliency" style="rounded=0;whiteSpace=wrap;html=1;fontSize=11;" vertex="1" parent="1">
          <mxGeometry x="808.5" y="107" width="109" height="16" as="geometry" />
        </mxCell>
        <mxCell id="RolmY0LqYMx0WTnuwE-U-44" style="edgeStyle=orthogonalEdgeStyle;rounded=0;orthogonalLoop=1;jettySize=auto;html=1;entryX=0;entryY=0.5;entryDx=0;entryDy=0;curved=1;endArrow=oval;endFill=1;fontSize=11;" edge="1" parent="1" source="RolmY0LqYMx0WTnuwE-U-28" target="RolmY0LqYMx0WTnuwE-U-38">
          <mxGeometry relative="1" as="geometry" />
        </mxCell>
        <mxCell id="RolmY0LqYMx0WTnuwE-U-28" value="Chaos engineering" style="rounded=0;whiteSpace=wrap;html=1;fontSize=11;" vertex="1" parent="1">
          <mxGeometry x="808.5" y="143" width="110" height="17" as="geometry" />
        </mxCell>
        <mxCell id="RolmY0LqYMx0WTnuwE-U-31" value="TBD" style="ellipse;whiteSpace=wrap;html=1;aspect=fixed;fontSize=11;" vertex="1" parent="1">
          <mxGeometry x="967" y="100" width="30" height="30" as="geometry" />
        </mxCell>
        <mxCell id="RolmY0LqYMx0WTnuwE-U-36" value="Slownet" style="rounded=0;whiteSpace=wrap;html=1;fontSize=11;" vertex="1" parent="1">
          <mxGeometry x="1046" y="375" width="113" height="18" as="geometry" />
        </mxCell>
        <mxCell id="RolmY0LqYMx0WTnuwE-U-45" style="edgeStyle=orthogonalEdgeStyle;rounded=0;orthogonalLoop=1;jettySize=auto;html=1;entryX=0;entryY=0.5;entryDx=0;entryDy=0;endArrow=oval;endFill=1;fontSize=11;" edge="1" parent="1" source="RolmY0LqYMx0WTnuwE-U-38" target="RolmY0LqYMx0WTnuwE-U-40">
          <mxGeometry relative="1" as="geometry" />
        </mxCell>
        <mxCell id="RolmY0LqYMx0WTnuwE-U-46" style="edgeStyle=orthogonalEdgeStyle;rounded=0;orthogonalLoop=1;jettySize=auto;html=1;entryX=0;entryY=0.5;entryDx=0;entryDy=0;endArrow=oval;endFill=1;fontSize=11;" edge="1" parent="1" source="RolmY0LqYMx0WTnuwE-U-38" target="RolmY0LqYMx0WTnuwE-U-42">
          <mxGeometry relative="1" as="geometry" />
        </mxCell>
        <mxCell id="RolmY0LqYMx0WTnuwE-U-47" style="edgeStyle=orthogonalEdgeStyle;rounded=0;orthogonalLoop=1;jettySize=auto;html=1;entryX=0;entryY=0.5;entryDx=0;entryDy=0;endArrow=oval;endFill=1;fontSize=11;" edge="1" parent="1" source="RolmY0LqYMx0WTnuwE-U-38" target="RolmY0LqYMx0WTnuwE-U-41">
          <mxGeometry relative="1" as="geometry" />
        </mxCell>
        <mxCell id="RolmY0LqYMx0WTnuwE-U-38" value="Targets" style="rounded=0;whiteSpace=wrap;html=1;fontSize=11;" vertex="1" parent="1">
          <mxGeometry x="892" y="171" width="75" height="18" as="geometry" />
        </mxCell>
        <mxCell id="RolmY0LqYMx0WTnuwE-U-40" value="&lt;font style=&quot;font-size: 11px;&quot;&gt;Server Infra&lt;/font&gt;" style="rounded=0;whiteSpace=wrap;html=1;fontSize=11;" vertex="1" parent="1">
          <mxGeometry x="951" y="201" width="64" height="19" as="geometry" />
        </mxCell>
        <mxCell id="RolmY0LqYMx0WTnuwE-U-57" style="edgeStyle=orthogonalEdgeStyle;rounded=0;orthogonalLoop=1;jettySize=auto;html=1;entryX=0;entryY=0.5;entryDx=0;entryDy=0;endArrow=oval;endFill=1;fontSize=11;" edge="1" parent="1" source="RolmY0LqYMx0WTnuwE-U-41" target="RolmY0LqYMx0WTnuwE-U-54">
          <mxGeometry relative="1" as="geometry" />
        </mxCell>
        <mxCell id="RolmY0LqYMx0WTnuwE-U-58" style="edgeStyle=orthogonalEdgeStyle;rounded=0;orthogonalLoop=1;jettySize=auto;html=1;entryX=0;entryY=0.5;entryDx=0;entryDy=0;endArrow=oval;endFill=1;fontSize=11;" edge="1" parent="1" source="RolmY0LqYMx0WTnuwE-U-41" target="RolmY0LqYMx0WTnuwE-U-53">
          <mxGeometry relative="1" as="geometry" />
        </mxCell>
        <mxCell id="RolmY0LqYMx0WTnuwE-U-41" value="&lt;font style=&quot;font-size: 11px;&quot;&gt;Database&lt;/font&gt;" style="rounded=0;whiteSpace=wrap;html=1;fontSize=11;" vertex="1" parent="1">
          <mxGeometry x="951" y="406" width="64" height="18" as="geometry" />
        </mxCell>
        <mxCell id="RolmY0LqYMx0WTnuwE-U-42" value="&lt;font style=&quot;font-size: 11px;&quot;&gt;Network&lt;/font&gt;" style="rounded=0;whiteSpace=wrap;html=1;fontSize=11;" vertex="1" parent="1">
          <mxGeometry x="951" y="375" width="64" height="18" as="geometry" />
        </mxCell>
        <mxCell id="RolmY0LqYMx0WTnuwE-U-66" style="edgeStyle=orthogonalEdgeStyle;rounded=0;orthogonalLoop=1;jettySize=auto;html=1;entryX=0;entryY=0.5;entryDx=0;entryDy=0;endArrow=oval;endFill=1;fontSize=11;" edge="1" parent="1" source="RolmY0LqYMx0WTnuwE-U-53" target="RolmY0LqYMx0WTnuwE-U-62">
          <mxGeometry relative="1" as="geometry" />
        </mxCell>
        <mxCell id="RolmY0LqYMx0WTnuwE-U-67" style="edgeStyle=orthogonalEdgeStyle;rounded=0;orthogonalLoop=1;jettySize=auto;html=1;entryX=0;entryY=0.5;entryDx=0;entryDy=0;endArrow=oval;endFill=1;fontSize=11;" edge="1" parent="1" source="RolmY0LqYMx0WTnuwE-U-53" target="RolmY0LqYMx0WTnuwE-U-63">
          <mxGeometry relative="1" as="geometry" />
        </mxCell>
        <mxCell id="RolmY0LqYMx0WTnuwE-U-68" style="edgeStyle=orthogonalEdgeStyle;rounded=0;orthogonalLoop=1;jettySize=auto;html=1;entryX=0;entryY=0.5;entryDx=0;entryDy=0;endArrow=oval;endFill=1;fontSize=11;" edge="1" parent="1" source="RolmY0LqYMx0WTnuwE-U-53" target="RolmY0LqYMx0WTnuwE-U-64">
          <mxGeometry relative="1" as="geometry" />
        </mxCell>
        <mxCell id="RolmY0LqYMx0WTnuwE-U-69" style="edgeStyle=orthogonalEdgeStyle;rounded=0;orthogonalLoop=1;jettySize=auto;html=1;entryX=0;entryY=0.5;entryDx=0;entryDy=0;endArrow=oval;endFill=1;fontSize=11;" edge="1" parent="1" source="RolmY0LqYMx0WTnuwE-U-53" target="RolmY0LqYMx0WTnuwE-U-65">
          <mxGeometry relative="1" as="geometry" />
        </mxCell>
        <mxCell id="RolmY0LqYMx0WTnuwE-U-71" style="edgeStyle=orthogonalEdgeStyle;rounded=0;orthogonalLoop=1;jettySize=auto;html=1;entryX=0;entryY=0.5;entryDx=0;entryDy=0;endArrow=oval;endFill=1;fontSize=11;" edge="1" parent="1" source="RolmY0LqYMx0WTnuwE-U-53" target="RolmY0LqYMx0WTnuwE-U-70">
          <mxGeometry relative="1" as="geometry" />
        </mxCell>
        <mxCell id="RolmY0LqYMx0WTnuwE-U-53" value="&lt;font style=&quot;font-size: 11px;&quot;&gt;RDBMS (MySQL)&lt;/font&gt;" style="rounded=0;whiteSpace=wrap;html=1;fontSize=11;" vertex="1" parent="1">
          <mxGeometry x="1007.5" y="435" width="119.5" height="17" as="geometry" />
        </mxCell>
        <mxCell id="RolmY0LqYMx0WTnuwE-U-78" style="edgeStyle=orthogonalEdgeStyle;rounded=0;orthogonalLoop=1;jettySize=auto;html=1;entryX=0;entryY=0.5;entryDx=0;entryDy=0;endArrow=oval;endFill=1;fontSize=11;" edge="1" parent="1" source="RolmY0LqYMx0WTnuwE-U-54" target="RolmY0LqYMx0WTnuwE-U-73">
          <mxGeometry relative="1" as="geometry" />
        </mxCell>
        <mxCell id="RolmY0LqYMx0WTnuwE-U-79" style="edgeStyle=orthogonalEdgeStyle;rounded=0;orthogonalLoop=1;jettySize=auto;html=1;entryX=0;entryY=0.5;entryDx=0;entryDy=0;endArrow=oval;endFill=1;fontSize=11;" edge="1" parent="1" source="RolmY0LqYMx0WTnuwE-U-54" target="RolmY0LqYMx0WTnuwE-U-74">
          <mxGeometry relative="1" as="geometry" />
        </mxCell>
        <mxCell id="RolmY0LqYMx0WTnuwE-U-80" style="edgeStyle=orthogonalEdgeStyle;rounded=0;orthogonalLoop=1;jettySize=auto;html=1;entryX=0;entryY=0.5;entryDx=0;entryDy=0;endArrow=oval;endFill=1;fontSize=11;" edge="1" parent="1" source="RolmY0LqYMx0WTnuwE-U-54" target="RolmY0LqYMx0WTnuwE-U-75">
          <mxGeometry relative="1" as="geometry" />
        </mxCell>
        <mxCell id="RolmY0LqYMx0WTnuwE-U-81" style="edgeStyle=orthogonalEdgeStyle;rounded=0;orthogonalLoop=1;jettySize=auto;html=1;entryX=0;entryY=0.5;entryDx=0;entryDy=0;endArrow=oval;endFill=1;fontSize=11;" edge="1" parent="1" source="RolmY0LqYMx0WTnuwE-U-54" target="RolmY0LqYMx0WTnuwE-U-76">
          <mxGeometry relative="1" as="geometry" />
        </mxCell>
        <mxCell id="RolmY0LqYMx0WTnuwE-U-82" style="edgeStyle=orthogonalEdgeStyle;rounded=0;orthogonalLoop=1;jettySize=auto;html=1;entryX=0;entryY=0.5;entryDx=0;entryDy=0;endArrow=oval;endFill=1;fontSize=11;" edge="1" parent="1" source="RolmY0LqYMx0WTnuwE-U-54" target="RolmY0LqYMx0WTnuwE-U-77">
          <mxGeometry relative="1" as="geometry" />
        </mxCell>
        <mxCell id="RolmY0LqYMx0WTnuwE-U-54" value="&lt;font style=&quot;font-size: 11px;&quot;&gt;NRDBMS (Mongo DB)&lt;/font&gt;" style="rounded=0;whiteSpace=wrap;html=1;fontSize=11;" vertex="1" parent="1">
          <mxGeometry x="1007.5" y="618" width="119.5" height="18" as="geometry" />
        </mxCell>
        <mxCell id="RolmY0LqYMx0WTnuwE-U-62" value="Split brain" style="rounded=0;whiteSpace=wrap;html=1;fontSize=11;" vertex="1" parent="1">
          <mxGeometry x="1102" y="464" width="138" height="18" as="geometry" />
        </mxCell>
        <mxCell id="RolmY0LqYMx0WTnuwE-U-63" value="Node/Instance failure" style="rounded=0;whiteSpace=wrap;html=1;fontSize=11;" vertex="1" parent="1">
          <mxGeometry x="1102" y="492" width="138" height="18" as="geometry" />
        </mxCell>
        <mxCell id="RolmY0LqYMx0WTnuwE-U-64" value="Latency Injection" style="rounded=0;whiteSpace=wrap;html=1;fontSize=11;" vertex="1" parent="1">
          <mxGeometry x="1102" y="518" width="138" height="18" as="geometry" />
        </mxCell>
        <mxCell id="RolmY0LqYMx0WTnuwE-U-65" value="High Load" style="rounded=0;whiteSpace=wrap;html=1;fontSize=11;" vertex="1" parent="1">
          <mxGeometry x="1102" y="545" width="138" height="18" as="geometry" />
        </mxCell>
        <mxCell id="RolmY0LqYMx0WTnuwE-U-70" value="Resource Exhaustion" style="rounded=0;whiteSpace=wrap;html=1;fontSize=11;" vertex="1" parent="1">
          <mxGeometry x="1102" y="574" width="139" height="18" as="geometry" />
        </mxCell>
        <mxCell id="RolmY0LqYMx0WTnuwE-U-73" value="Split brain" style="rounded=0;whiteSpace=wrap;html=1;fontSize=11;" vertex="1" parent="1">
          <mxGeometry x="1101" y="648" width="138" height="18" as="geometry" />
        </mxCell>
        <mxCell id="RolmY0LqYMx0WTnuwE-U-74" value="Node/Instance failure" style="rounded=0;whiteSpace=wrap;html=1;fontSize=11;" vertex="1" parent="1">
          <mxGeometry x="1101" y="676" width="138" height="18" as="geometry" />
        </mxCell>
        <mxCell id="RolmY0LqYMx0WTnuwE-U-75" value="Latency Injection" style="rounded=0;whiteSpace=wrap;html=1;fontSize=11;" vertex="1" parent="1">
          <mxGeometry x="1101" y="702" width="138" height="18" as="geometry" />
        </mxCell>
        <mxCell id="RolmY0LqYMx0WTnuwE-U-76" value="High Load" style="rounded=0;whiteSpace=wrap;html=1;fontSize=11;" vertex="1" parent="1">
          <mxGeometry x="1101" y="729" width="138" height="18" as="geometry" />
        </mxCell>
        <mxCell id="RolmY0LqYMx0WTnuwE-U-77" value="Change Schema" style="rounded=0;whiteSpace=wrap;html=1;fontSize=11;" vertex="1" parent="1">
          <mxGeometry x="1101" y="758" width="139" height="18" as="geometry" />
        </mxCell>
        <mxCell id="RolmY0LqYMx0WTnuwE-U-83" value="" style="group;fontSize=11;" vertex="1" connectable="0" parent="1">
          <mxGeometry x="1007.5" y="231" width="115.5" height="99" as="geometry" />
        </mxCell>
        <mxCell id="RolmY0LqYMx0WTnuwE-U-33" value="CPU rider" style="rounded=0;whiteSpace=wrap;html=1;fontSize=11;fontStyle=0" vertex="1" parent="RolmY0LqYMx0WTnuwE-U-83">
          <mxGeometry width="115.5" height="18" as="geometry" />
        </mxCell>
        <mxCell id="RolmY0LqYMx0WTnuwE-U-34" value="Memory rider" style="rounded=0;whiteSpace=wrap;html=1;fontSize=11;fontStyle=0" vertex="1" parent="RolmY0LqYMx0WTnuwE-U-83">
          <mxGeometry y="28" width="115.5" height="18" as="geometry" />
        </mxCell>
        <mxCell id="RolmY0LqYMx0WTnuwE-U-35" value="Disk rider" style="rounded=0;whiteSpace=wrap;html=1;fontSize=11;fontStyle=0" vertex="1" parent="RolmY0LqYMx0WTnuwE-U-83">
          <mxGeometry y="54" width="115.5" height="18" as="geometry" />
        </mxCell>
        <mxCell id="RolmY0LqYMx0WTnuwE-U-37" value="Shutdown test" style="rounded=0;whiteSpace=wrap;html=1;fontSize=11;fontStyle=0" vertex="1" parent="RolmY0LqYMx0WTnuwE-U-83">
          <mxGeometry y="81" width="115.5" height="18" as="geometry" />
        </mxCell>
      </root>
    </mxGraphModel>
  </diagram>
</mxfile>
